<svg width="18" height="16" viewBox="0 0 18 16" fill="none" xmlns="http://www.w3.org/2000/svg">
<path fill-rule="evenodd" clip-rule="evenodd" d="M8.79954 0C9.08244 0 9.35375 0.105357 9.55378 0.292893C9.75382 0.48043 9.8662 0.734784 9.8662 1V2C9.8662 2.26522 9.75382 2.51957 9.55378 2.70711C9.35375 2.89464 9.08244 3 8.79954 3C8.51664 3 8.24533 2.89464 8.04529 2.70711C7.84525 2.51957 7.73287 2.26522 7.73287 2V1C7.73287 0.734784 7.84525 0.48043 8.04529 0.292893C8.24533 0.105357 8.51664 0 8.79954 0ZM13.0662 8C13.0662 9.06087 12.6167 10.0783 11.8165 10.8284C11.0164 11.5786 9.93113 12 8.79954 12C7.66795 12 6.5827 11.5786 5.78255 10.8284C4.98239 10.0783 4.53287 9.06087 4.53287 8C4.53287 6.93913 4.98239 5.92172 5.78255 5.17157C6.5827 4.42143 7.66795 4 8.79954 4C9.93113 4 11.0164 4.42143 11.8165 5.17157C12.6167 5.92172 13.0662 6.93913 13.0662 8ZM12.5713 12.95L13.3254 13.657C13.5266 13.8392 13.796 13.94 14.0757 13.9377C14.3554 13.9354 14.6229 13.8302 14.8207 13.6448C15.0184 13.4594 15.1306 13.2086 15.1331 12.9464C15.1355 12.6842 15.028 12.4316 14.8337 12.243L14.0795 11.536C13.8784 11.3538 13.6089 11.253 13.3292 11.2553C13.0496 11.2576 12.782 11.3628 12.5843 11.5482C12.3865 11.7336 12.2743 11.9844 12.2719 12.2466C12.2695 12.5088 12.377 12.7614 12.5713 12.95ZM14.8326 2.343C15.0326 2.53053 15.1449 2.78484 15.1449 3.05C15.1449 3.31516 15.0326 3.56947 14.8326 3.757L14.0795 4.464C13.9811 4.55951 13.8634 4.63569 13.7333 4.6881C13.6032 4.74051 13.4632 4.7681 13.3216 4.76925C13.1799 4.7704 13.0395 4.7451 12.9084 4.69482C12.7773 4.64454 12.6582 4.57029 12.5581 4.4764C12.4579 4.3825 12.3787 4.27085 12.3251 4.14795C12.2714 4.02506 12.2444 3.89338 12.2457 3.7606C12.2469 3.62782 12.2763 3.4966 12.3322 3.3746C12.3881 3.25259 12.4694 3.14225 12.5713 3.05L13.3254 2.343C13.5254 2.15553 13.7967 2.05021 14.0795 2.05021C14.3624 2.05021 14.6336 2.15553 14.8337 2.343H14.8326ZM16.2662 9C16.5491 9 16.8204 8.89464 17.0205 8.70711C17.2205 8.51957 17.3329 8.26522 17.3329 8C17.3329 7.73478 17.2205 7.48043 17.0205 7.29289C16.8204 7.10536 16.5491 7 16.2662 7H15.1995C14.9166 7 14.6453 7.10536 14.4453 7.29289C14.2453 7.48043 14.1329 7.73478 14.1329 8C14.1329 8.26522 14.2453 8.51957 14.4453 8.70711C14.6453 8.89464 14.9166 9 15.1995 9H16.2662ZM8.79954 13C9.08244 13 9.35375 13.1054 9.55378 13.2929C9.75382 13.4804 9.8662 13.7348 9.8662 14V15C9.8662 15.2652 9.75382 15.5196 9.55378 15.7071C9.35375 15.8946 9.08244 16 8.79954 16C8.51664 16 8.24533 15.8946 8.04529 15.7071C7.84525 15.5196 7.73287 15.2652 7.73287 15V14C7.73287 13.7348 7.84525 13.4804 8.04529 13.2929C8.24533 13.1054 8.51664 13 8.79954 13ZM3.51954 4.464C3.61857 4.55691 3.73616 4.63062 3.86558 4.68093C3.995 4.73124 4.13372 4.75716 4.27383 4.7572C4.41393 4.75725 4.55268 4.73142 4.68213 4.6812C4.81159 4.63098 4.92923 4.55734 5.02834 4.4645C5.12744 4.37166 5.20607 4.26142 5.25973 4.14009C5.31339 4.01876 5.34104 3.8887 5.34109 3.75735C5.34114 3.62601 5.31359 3.49593 5.26002 3.37457C5.20645 3.2532 5.12791 3.14291 5.02887 3.05L4.27367 2.343C4.0725 2.16084 3.80305 2.06005 3.52338 2.06233C3.2437 2.0646 2.97617 2.16977 2.7784 2.35518C2.58063 2.54059 2.46845 2.7914 2.46602 3.0536C2.46359 3.3158 2.5711 3.5684 2.7654 3.757L3.51954 4.464ZM5.0278 12.95L4.27367 13.657C4.0725 13.8392 3.80305 13.94 3.52338 13.9377C3.2437 13.9354 2.97617 13.8302 2.7784 13.6448C2.58063 13.4594 2.46845 13.2086 2.46602 12.9464C2.46359 12.6842 2.5711 12.4316 2.7654 12.243L3.51954 11.536C3.72071 11.3538 3.99016 11.253 4.26983 11.2553C4.54951 11.2576 4.81704 11.3628 5.01481 11.5482C5.21258 11.7336 5.32476 11.9844 5.32719 12.2466C5.32962 12.5088 5.22211 12.7614 5.0278 12.95ZM2.39954 9C2.68244 9 2.95375 8.89464 3.15378 8.70711C3.35382 8.51957 3.4662 8.26522 3.4662 8C3.4662 7.73478 3.35382 7.48043 3.15378 7.29289C2.95375 7.10536 2.68244 7 2.39954 7H1.33287C1.04997 7 0.778663 7.10536 0.578624 7.29289C0.378585 7.48043 0.266205 7.73478 0.266205 8C0.266205 8.26522 0.378585 8.51957 0.578624 8.70711C0.778663 8.89464 1.04997 9 1.33287 9H2.39954Z" fill="#2B3E9B"/>
</svg>
