<svg width="127" height="16" viewBox="0 0 127 16" fill="none" xmlns="http://www.w3.org/2000/svg">
<path d="M0.150391 0.820078V4.04008H13.7204V0.820078H0.150391ZM3.37039 9.51408H12.3634V6.29408H3.37039L0.150391 6.27108V16.0001H13.7204V12.7801H3.37039V9.51408Z" fill="black"/>
<path d="M29.7383 7.37508C29.4853 5.58108 28.6113 3.92508 27.2543 2.72908C26.0123 1.62508 24.4253 0.958078 22.7923 0.843078L16.0303 0.820078V4.04008H22.4013C22.6313 4.06308 22.8613 4.08608 23.0683 4.13208C23.7123 4.27008 24.3103 4.54608 24.8393 4.93708C25.7133 5.58108 26.2883 6.52408 26.5183 7.58208C26.5643 7.85808 26.5873 8.15708 26.5873 8.43308C26.5873 8.75508 26.5643 9.05408 26.4953 9.35308C26.1273 11.1241 24.6783 12.5041 22.8843 12.7801H19.2503V6.29408H16.0303V16.0001H23.1373C26.5183 15.5861 29.2553 12.9411 29.7383 9.56008C29.7843 9.19208 29.8303 8.82408 29.8303 8.43308C29.8303 8.08808 29.8073 7.72008 29.7383 7.37508Z" fill="black"/>
<path d="M37.035 6.31708L37.426 7.19108L38.346 9.19208L38.53 9.56008H42.279V12.7801H38.208C35.977 12.4581 34.298 10.5951 34.298 8.43308C34.298 6.24808 35.977 4.38508 38.208 4.06308H45.476V0.843078H38.875C36.805 0.843078 34.873 1.62508 33.424 3.02808C31.929 4.47708 31.124 6.38608 31.124 8.43308C31.124 10.4801 31.929 12.3891 33.424 13.8151C34.873 15.2411 36.805 16.0001 38.875 16.0001H45.522V6.31708H37.035Z" fill="black"/>
<path d="M47.8125 0.820078V4.04008H61.3825V0.820078H47.8125ZM51.0325 9.51408H60.0255V6.29408H51.0325L47.8125 6.27108V16.0001H61.3825V12.7801H51.0325V9.51408Z" fill="black"/>
<path d="M66.7066 0.820078H62.6816L63.1186 1.60208L68.0866 10.5951L70.1106 6.96108L66.7066 0.820078ZM76.0906 0.820078L75.9756 1.02708L72.4566 7.39808L71.7896 8.59408L71.3986 9.28408L69.3746 12.9181L71.0076 16.0001H71.8586L79.7016 1.60208L80.1386 0.820078H76.0906Z" fill="black"/>
<path d="M76.3717 15.1031L75.8887 16.0001H79.9367L80.0977 15.7011L83.3867 9.74408L81.3627 6.11008L76.3717 15.1031ZM92.9777 15.1031L86.5377 3.48808L85.2037 1.09608L85.0657 0.774077H84.2837L84.1227 1.09608L82.8117 3.48808L82.6507 3.78708L84.6747 7.44408L84.7207 7.53608L89.2517 15.7011L89.4127 16.0001H93.4607L92.9777 15.1031Z" fill="black"/>
<path d="M95.3174 16.0001H98.5374V10.8711L95.3174 7.65108V16.0001ZM104.402 0.797078V8.98508L96.0994 0.705078H95.3174V4.47708L106.84 16.0001H107.622V0.797078H104.402Z" fill="black"/>
<path d="M109.389 15.1031L108.906 16.0001H112.954L113.115 15.7011L116.404 9.74408L114.38 6.11008L109.389 15.1031ZM125.995 15.1031L119.555 3.48808L118.221 1.09608L118.083 0.774077H117.301L117.14 1.09608L115.829 3.48808L115.668 3.78708L117.692 7.44408L117.738 7.53608L122.269 15.7011L122.43 16.0001H126.478L125.995 15.1031Z" fill="black"/>
</svg>
